<svg width="8" height="12" viewBox="0 0 8 12" fill="none" xmlns="http://www.w3.org/2000/svg">
<path d="M7.5547 5.03904C7.42243 5.1713 7.20306 5.1713 7.07079 5.03904L4.34154 2.30978L4.34154 10.5169C4.34154 10.6137 4.30282 10.6976 4.24153 10.7589C4.18023 10.8201 4.09636 10.8589 3.99957 10.8589C3.81246 10.8589 3.65761 10.704 3.65761 10.5169L3.65761 2.30978L0.928357 5.03904C0.796089 5.1713 0.576716 5.1713 0.444447 5.03904C0.312179 4.90677 0.312179 4.68739 0.444447 4.55513L3.75762 1.24196C3.78988 1.20969 3.82537 1.18711 3.87053 1.16776C3.95118 1.13227 4.04796 1.13227 4.12862 1.16776C4.17378 1.18711 4.20927 1.20969 4.24153 1.24196L7.5547 4.55513C7.68697 4.68739 7.68697 4.90677 7.5547 5.03904Z" fill="#46E18C" stroke="#46E18C" stroke-width="0.5"/>
</svg>
