<svg width="163" height="26" viewBox="0 0 163 26" fill="none" xmlns="http://www.w3.org/2000/svg">
<path d="M19.6238 5.79989H0.980952C0.447619 5.79989 0.0285714 5.37817 0.0285714 4.84746V1.17988C0.0285714 0.649171 0.447619 0.227447 0.980952 0.227447H19.6238C20.1571 0.227447 20.5762 0.649171 20.5762 1.17988V4.8522C20.5762 5.38291 20.1286 5.79989 19.6238 5.79989ZM45.0286 24.8249V21.1525C45.0286 20.6218 44.6095 20.2001 44.0762 20.2001H25.9143C25.381 20.2001 24.9619 20.6218 24.9619 21.1525V24.8249C24.9619 25.3556 25.381 25.7773 25.9143 25.7773H44.0762C44.6095 25.7773 45.0286 25.3556 45.0286 24.8249ZM7.52381 20.2048L14.1476 12.8886C14.4857 12.5238 14.4857 11.9362 14.119 11.5714L11.5095 8.96519C11.1143 8.5719 10.5 8.60033 10.1333 8.99362L0.252381 19.9205C0.0857143 20.0911 0 20.3138 0 20.565V24.8249C0 25.3556 0.419048 25.7773 0.952381 25.7773H19.5952C20.1286 25.7773 20.5476 25.3556 20.5476 24.8249V21.1525C20.5476 20.6218 20.1286 20.2001 19.5952 20.2001H7.52381V20.2048ZM45.0286 4.84746V1.17988C45.0286 0.649171 44.6095 0.227447 44.0762 0.227447H25.9143C25.381 0.227447 24.9619 0.649171 24.9619 1.17988V14.8219C24.9619 15.3527 25.381 15.7744 25.9143 15.7744H40.4286C40.9619 15.7744 41.381 15.3527 41.381 14.8219V11.1828C41.381 10.6521 40.9619 10.2304 40.4286 10.2304H30.5429V5.80463H44.0762C44.6095 5.79989 45.0286 5.38291 45.0286 4.84746ZM66.1429 18.8876L68.7524 21.4937C69.1476 21.887 69.119 22.5314 68.6952 22.8963C63.4476 27.3505 55.5 27.014 50.7 21.8301C46.0952 16.8974 46.0952 9.14051 50.7 4.17933C55.5 -1.00456 63.4476 -1.36942 68.6952 3.11318C69.1143 3.47804 69.1429 4.12247 68.7524 4.51576L66.1429 7.12192C65.8048 7.45836 65.2429 7.48679 64.881 7.20722C61.8476 4.80007 57.3286 5.07964 54.6619 8.10279C52.1905 10.8748 52.1905 15.1347 54.6619 17.9067C57.3286 20.9346 61.8476 21.2426 64.881 18.8023C65.2714 18.5227 65.8048 18.5511 66.1429 18.8876ZM100 13.0024C100 20.1764 94.1619 26 86.9714 26C79.781 26 73.9429 20.1717 73.9429 13.0024C73.9429 5.83306 79.7857 0 86.9714 0C94.1571 0 100 5.82832 100 13.0024ZM94.4143 13.0024C94.4143 8.91307 91.0714 5.57718 86.9762 5.57718C82.881 5.57718 79.5381 8.91307 79.5381 13.0024C79.5381 17.0917 82.881 20.4276 86.9762 20.4276C91.1 20.4276 94.4143 17.0917 94.4143 13.0024ZM71.1667 14.8219V11.1828C71.1667 10.6521 70.7476 10.2304 70.2143 10.2304H59.6286C59.0952 10.2304 58.6762 10.6521 58.6762 11.1828V14.8267C58.6762 15.3574 59.0952 15.7791 59.6286 15.7791H70.2143C70.7476 15.7744 71.1667 15.3574 71.1667 14.8219Z" fill="white"/>
<path d="M108.54 20H110.54V14.16H116.38V12.4H110.54V7.8H117.18V6H108.54V20ZM119.712 20H128.132V18.16H121.712V6H119.712V20ZM130.259 20H138.899V18.2H132.259V13.82H138.059V12.06H132.259V7.8H138.899V6H130.259V20ZM141.431 20H150.071V18.2H143.431V13.82H149.231V12.06H143.431V7.8H150.071V6H141.431V20ZM155.803 20H157.803V7.84H161.983V6H151.643V7.84H155.803V20Z" fill="white"/>
</svg>
