<svg width="8" height="12" viewBox="0 0 8 12" fill="none" xmlns="http://www.w3.org/2000/svg">
<path fill-rule="evenodd" clip-rule="evenodd" d="M7.34265 4.3446C7.2929 4.39448 7.23379 4.43405 7.16872 4.46105C7.10365 4.48805 7.03389 4.50195 6.96345 4.50195C6.893 4.50195 6.82324 4.48805 6.75817 4.46105C6.6931 4.43405 6.63399 4.39448 6.58424 4.3446L3.74986 1.50915L0.915477 4.3446C0.814906 4.44517 0.678503 4.50167 0.536273 4.50167C0.394045 4.50167 0.257641 4.44517 0.157071 4.3446C0.0564995 4.24403 0 4.10763 0 3.9654C0 3.82317 0.0564995 3.68677 0.157071 3.58619L3.37066 0.372608C3.42041 0.32273 3.47951 0.283157 3.54458 0.256156C3.60965 0.229156 3.67941 0.215257 3.74986 0.215257C3.82031 0.215257 3.89007 0.229156 3.95514 0.256156C4.02021 0.283157 4.07931 0.32273 4.12906 0.372608L7.34265 3.58619C7.39253 3.63595 7.4321 3.69505 7.4591 3.76012C7.4861 3.82519 7.5 3.89495 7.5 3.9654C7.5 4.03585 7.4861 4.1056 7.4591 4.17067C7.4321 4.23574 7.39253 4.29485 7.34265 4.3446Z" fill="#616161"/>
<path fill-rule="evenodd" clip-rule="evenodd" d="M3.74956 12C3.60751 12 3.47128 11.9436 3.37083 11.8431C3.27039 11.7427 3.21396 11.6065 3.21396 11.4644L3.21396 1.82364C3.21396 1.68159 3.27039 1.54536 3.37083 1.44492C3.47128 1.34447 3.60751 1.28805 3.74956 1.28805C3.89161 1.28805 4.02784 1.34447 4.12828 1.44492C4.22873 1.54536 4.28516 1.68159 4.28516 1.82364L4.28516 11.4644C4.28516 11.6065 4.22873 11.7427 4.12828 11.8431C4.02784 11.9436 3.89161 12 3.74956 12Z" fill="#616161"/>
</svg>
