<svg width="19" height="19" viewBox="0 0 19 19" fill="none" xmlns="http://www.w3.org/2000/svg">
<g id="Iconly/Bold/Camera">
<g id="Camera">
<path id="Camera_2" fill-rule="evenodd" clip-rule="evenodd" d="M13.4039 4.99291C13.4339 5.04542 13.4865 5.08292 13.5541 5.08292C15.3564 5.08292 16.8283 6.55317 16.8283 8.35348V12.8092C16.8283 14.6095 15.3564 16.0798 13.5541 16.0798H5.08327C3.27345 16.0798 1.80908 14.6095 1.80908 12.8092V8.35348C1.80908 6.55317 3.27345 5.08292 5.08327 5.08292C5.14334 5.08292 5.20342 5.05292 5.22595 4.99291L5.27101 4.90289C5.2969 4.8484 5.32347 4.79243 5.35044 4.73562C5.54256 4.33096 5.75509 3.88329 5.88679 3.62018C6.23224 2.94506 6.81798 2.57 7.54642 2.5625H11.0834C11.8119 2.57 12.4051 2.94506 12.7506 3.62018C12.8688 3.85645 13.049 4.23703 13.2227 4.60385C13.2585 4.67958 13.2941 4.75472 13.3288 4.82788L13.4039 4.99291ZM12.856 7.87256C12.856 8.24762 13.1563 8.54767 13.5318 8.54767C13.9073 8.54767 14.2152 8.24762 14.2152 7.87256C14.2152 7.49749 13.9073 7.18994 13.5318 7.18994C13.1563 7.18994 12.856 7.49749 12.856 7.87256ZM8.02101 9.03667C8.37396 8.68411 8.83204 8.49658 9.32017 8.49658C9.80829 8.49658 10.2664 8.68411 10.6118 9.02917C10.9573 9.37423 11.145 9.83181 11.145 10.3194C11.1375 11.3246 10.3265 12.1422 9.32017 12.1422C8.83204 12.1422 8.37396 11.9547 8.02852 11.6096C7.68307 11.2645 7.49533 10.807 7.49533 10.3194V10.3119C7.48782 9.83931 7.67556 9.38173 8.02101 9.03667ZM11.3997 12.4015C10.8665 12.9341 10.1306 13.2642 9.31957 13.2642C8.53106 13.2642 7.79512 12.9566 7.2319 12.4015C6.67619 11.8389 6.3683 11.1038 6.3683 10.3162C6.36079 9.53603 6.66868 8.80091 7.22439 8.23831C7.78761 7.67572 8.53106 7.36816 9.31957 7.36816C10.1081 7.36816 10.8515 7.67572 11.4072 8.23081C11.963 8.7934 12.2708 9.53603 12.2708 10.3162C12.2633 11.1338 11.9329 11.8689 11.3997 12.4015Z" fill="white"/>
</g>
</g>
</svg>
