<svg width="18" height="18" viewBox="0 0 18 18" fill="none" xmlns="http://www.w3.org/2000/svg">
<path d="M9.00033 0.666992C4.40866 0.666992 0.666992 4.40866 0.666992 9.00033C0.666992 13.592 4.40866 17.3337 9.00033 17.3337C13.592 17.3337 17.3337 13.592 17.3337 9.00033C17.3337 4.40866 13.592 0.666992 9.00033 0.666992ZM8.37533 5.66699C8.37533 5.32533 8.65866 5.04199 9.00033 5.04199C9.34199 5.04199 9.62533 5.32533 9.62533 5.66699V9.83366C9.62533 10.1753 9.34199 10.4587 9.00033 10.4587C8.65866 10.4587 8.37533 10.1753 8.37533 9.83366V5.66699ZM9.76699 12.6503C9.72533 12.7587 9.66699 12.842 9.59199 12.9253C9.50866 13.0003 9.41699 13.0587 9.31699 13.1003C9.21699 13.142 9.10866 13.167 9.00033 13.167C8.89199 13.167 8.78366 13.142 8.68366 13.1003C8.58366 13.0587 8.49199 13.0003 8.40866 12.9253C8.33366 12.842 8.27533 12.7587 8.23366 12.6503C8.19199 12.5503 8.16699 12.442 8.16699 12.3337C8.16699 12.2253 8.19199 12.117 8.23366 12.017C8.27533 11.917 8.33366 11.8253 8.40866 11.742C8.49199 11.667 8.58366 11.6087 8.68366 11.567C8.88366 11.4837 9.11699 11.4837 9.31699 11.567C9.41699 11.6087 9.50866 11.667 9.59199 11.742C9.66699 11.8253 9.72533 11.917 9.76699 12.017C9.80866 12.117 9.83366 12.2253 9.83366 12.3337C9.83366 12.442 9.80866 12.5503 9.76699 12.6503Z" fill="#C5CDD4"/>
</svg>
