<svg width="21" height="21" viewBox="0 0 21 21" fill="none" xmlns="http://www.w3.org/2000/svg">
<path d="M3.41732 18.4736H17.584C17.9257 18.4736 18.209 18.757 18.209 19.0986C18.209 19.4403 17.9257 19.7236 17.584 19.7236H3.41732C3.07565 19.7236 2.79232 19.4403 2.79232 19.0986C2.79232 18.757 3.07565 18.4736 3.41732 18.4736Z" fill="white"/>
<path d="M4.66992 6.16628C5.01159 6.16628 5.29492 6.44961 5.29492 6.79128L5.29492 13.8413L15.8949 3.24128C16.0199 3.11628 16.1783 3.05794 16.3366 3.05794C16.4949 3.05794 16.6533 3.11628 16.7783 3.24128C17.0199 3.48294 17.0199 3.88295 16.7783 4.12461L6.17826 14.7246L13.2283 14.7246C13.5699 14.7246 13.8533 15.0079 13.8533 15.3496C13.8533 15.6913 13.5699 15.9746 13.2283 15.9746L4.66992 15.9746C4.58659 15.9746 4.51159 15.9579 4.42826 15.9246C4.27826 15.8663 4.15326 15.7413 4.09492 15.5913C4.06159 15.5079 4.04492 15.4329 4.04492 15.3496L4.04492 6.79128C4.04492 6.44961 4.32826 6.16628 4.66992 6.16628Z" fill="white"/>
</svg>
