<svg version="1.1" id="Layer_1" xmlns="http://www.w3.org/2000/svg" xmlns:xlink="http://www.w3.org/1999/xlink" x="0px" y="0px"
	 viewBox="0 0 24 24" style="enable-background:new 0 0 24 24;" xml:space="preserve">
<style type="text/css">
	.st0{fill:#292D32;}
</style>

<g>
	<path class="st0" d="M18,7.7C18,7.7,17.9,7.7,18,7.7c-0.1,0-0.1,0-0.1,0c0,0-0.1,0-0.1,0c-1.7-0.1-3-1.4-3-3.1
		c0-1.7,1.4-3.1,3.1-3.1S21,2.9,21,4.6C21,6.2,19.7,7.6,18,7.7C18,7.7,18,7.7,18,7.7z M17.9,2.5c-1.1,0-2.1,0.9-2.1,2.1
		c0,1.1,0.9,2,2,2.1c0.1,0,0.2,0,0.2,0c1.1-0.1,2-1,2-2.1C20,3.4,19.1,2.5,17.9,2.5z"/>
</g>
<g>
	<path class="st0" d="M18,15c-0.4,0-0.7,0-1.1-0.1c-0.3,0-0.5-0.3-0.4-0.6s0.3-0.5,0.6-0.4c1.3,0.2,2.7,0,3.6-0.6
		c0.5-0.4,0.8-0.8,0.8-1.3s-0.3-0.9-0.8-1.3c-0.9-0.6-2.3-0.9-3.6-0.6c-0.3,0-0.5-0.1-0.6-0.4c0-0.3,0.1-0.5,0.4-0.6
		c1.5-0.3,3.2,0,4.3,0.8c0.8,0.6,1.3,1.3,1.3,2.1s-0.5,1.6-1.3,2.1C20.3,14.7,19.2,15,18,15z"/>
</g>
<g>
	<path class="st0" d="M6,7.7C6,7.7,6,7.7,6,7.7C4.3,7.6,3,6.2,3,4.6c0-1.7,1.4-3.1,3.1-3.1s3.1,1.4,3.1,3.1c0,1.7-1.3,3-3,3.1
		c0,0-0.1,0-0.1,0C6,7.7,6,7.7,6,7.7z M6.1,6.7c0,0,0.1,0,0.1,0c1.1-0.1,2-1,2-2.1c0-1.1-0.9-2.1-2.1-2.1S4,3.4,4,4.6
		c0,1.1,0.9,2,2,2.1C6,6.7,6,6.7,6.1,6.7z"/>
</g>
<g>
	<path class="st0" d="M6,15c-1.2,0-2.3-0.3-3.2-0.9C2,13.6,1.5,12.8,1.5,12S2,10.4,2.8,9.9c1.1-0.8,2.8-1.1,4.3-0.8
		c0.3,0,0.5,0.3,0.4,0.6c0,0.3-0.3,0.5-0.6,0.4c-1.3-0.2-2.7,0-3.6,0.6c-0.5,0.4-0.8,0.8-0.8,1.3s0.3,0.9,0.8,1.3
		c0.9,0.6,2.3,0.9,3.6,0.6c0.3,0,0.5,0.1,0.6,0.4s-0.1,0.5-0.4,0.6C6.7,15,6.3,15,6,15z"/>
</g>
<g>
	<path class="st0" d="M12,15.1C12,15.1,11.9,15.1,12,15.1c-0.1,0-0.1,0-0.1,0c-1.8-0.1-3.1-1.4-3.1-3.1c0-1.7,1.4-3.1,3.1-3.1
		s3.1,1.4,3.1,3.1C15,13.7,13.7,15.1,12,15.1C12,15.1,12,15.1,12,15.1z M11.9,10c-1.1,0-2.1,0.9-2.1,2.1c0,1.1,0.9,2,2,2.1
		c0,0,0.1,0,0.2,0c1.1-0.1,2-1,2-2.1C14,10.9,13.1,10,11.9,10z"/>
</g>
<g>
	<path class="st0" d="M12,22.5c-1.2,0-2.3-0.3-3.2-0.9c-0.8-0.6-1.3-1.3-1.3-2.1c0-0.8,0.5-1.6,1.3-2.1c0,0,0,0,0,0
		c1.8-1.2,4.6-1.2,6.4,0c0.8,0.5,1.3,1.3,1.3,2.1c0,0.8-0.5,1.6-1.3,2.1C14.3,22.2,13.2,22.5,12,22.5z M9.4,18.2
		c-0.5,0.4-0.8,0.8-0.8,1.3c0,0.5,0.3,0.9,0.8,1.3c1.4,1,3.8,1,5.3,0c0.5-0.4,0.8-0.8,0.8-1.3c0-0.5-0.3-0.9-0.8-1.3
		C13.2,17.2,10.8,17.3,9.4,18.2z"/>
</g>
</svg>
