<svg width="33" height="33" viewBox="0 0 33 33" fill="none" xmlns="http://www.w3.org/2000/svg">
<path d="M16.6 32.8566C25.6335 32.8566 32.9565 25.5335 32.9565 16.5001C32.9565 7.46662 25.6335 0.143555 16.6 0.143555C7.56653 0.143555 0.243469 7.46662 0.243469 16.5001C0.243469 25.5335 7.56653 32.8566 16.6 32.8566Z" fill="#F0F0F0"/>
<path d="M3.62181 6.54834C2.33699 8.21996 1.36819 10.1466 0.804077 12.2397H9.31317L3.62181 6.54834Z" fill="#0052B4"/>
<path d="M32.3891 12.2343C31.825 10.1413 30.8561 8.2146 29.5714 6.54297L23.8801 12.2343H32.3891Z" fill="#0052B4"/>
<path d="M0.804077 20.772C1.36825 22.865 2.33705 24.7917 3.62181 26.4632L9.31298 20.772H0.804077Z" fill="#0052B4"/>
<path d="M26.5556 3.52727C24.8839 2.24245 22.9573 1.27364 20.8643 0.709473V9.21851L26.5556 3.52727Z" fill="#0052B4"/>
<path d="M6.63953 29.4788C8.31115 30.7636 10.2378 31.7324 12.3308 32.2966V23.7876L6.63953 29.4788Z" fill="#0052B4"/>
<path d="M12.3308 0.709473C10.2378 1.27364 8.31109 2.24245 6.63953 3.5272L12.3308 9.21844V0.709473Z" fill="#0052B4"/>
<path d="M20.8643 32.2961C22.9573 31.7319 24.8839 30.7631 26.5555 29.4783L20.8643 23.7871V32.2961Z" fill="#0052B4"/>
<path d="M23.8801 20.772L29.5714 26.4633C30.8561 24.7917 31.825 22.865 32.3891 20.772H23.8801Z" fill="#0052B4"/>
<path d="M32.8181 14.3666H18.7336H18.7335V0.28201C18.0351 0.191091 17.3231 0.143555 16.6 0.143555C15.8768 0.143555 15.1649 0.191091 14.4666 0.28201V14.3665V14.3666H0.381925C0.291005 15.065 0.243469 15.777 0.243469 16.5001C0.243469 17.2233 0.291005 17.9352 0.381925 18.6335H14.4664H14.4665V32.7181C15.1649 32.8091 15.8768 32.8566 16.6 32.8566C17.3231 32.8566 18.0351 32.8091 18.7334 32.7181V18.6336V18.6336H32.8181C32.909 17.9352 32.9565 17.2233 32.9565 16.5001C32.9565 15.777 32.909 15.065 32.8181 14.3666Z" fill="#D80027"/>
<path d="M20.8679 20.7652L28.1667 28.064C28.5024 27.7285 28.8226 27.3776 29.1282 27.014L22.8793 20.7651H20.8679V20.7652Z" fill="#D80027"/>
<path d="M12.3324 20.769H12.3323L5.03351 28.0678C5.36907 28.4035 5.71991 28.7237 6.08358 29.0293L12.3324 22.7803V20.769Z" fill="#D80027"/>
<path d="M12.3329 12.2302V12.2301L5.03403 4.93115C4.69834 5.26672 4.37811 5.61755 4.07257 5.98123L10.3215 12.2301H12.3329V12.2302Z" fill="#D80027"/>
<path d="M20.8679 12.233L28.1668 4.93405C27.8312 4.59836 27.4804 4.27813 27.1167 3.97266L20.8679 10.2216V12.233Z" fill="#D80027"/>
</svg>
