<svg version="1.1" id="Layer_1" xmlns="http://www.w3.org/2000/svg" xmlns:xlink="http://www.w3.org/1999/xlink" x="0px" y="0px"
	 viewBox="0 0 20 20" style="enable-background:new 0 0 20 20;" xml:space="preserve">
<style type="text/css">
	.st0{fill:#001E50;}
</style>
<g>
	<path class="st0" d="M10,11.4c-0.3,0-0.6-0.3-0.6-0.6V6.5c0-0.3,0.3-0.6,0.6-0.6s0.6,0.3,0.6,0.6v4.4C10.6,11.2,10.3,11.4,10,11.4z
		"/>
</g>
<g>
	<path class="st0" d="M10,18.9c-0.6,0-1.1-0.1-1.6-0.4l-5-2.9c-1-0.6-1.6-1.6-1.6-2.8V7.1c0-1.1,0.6-2.2,1.6-2.8l5-2.9
		c1-0.6,2.2-0.6,3.2,0l5,2.9c1,0.6,1.6,1.7,1.6,2.8v5.7c0,1.1-0.6,2.2-1.6,2.8l-5,2.9C11.1,18.8,10.6,18.9,10,18.9z M10,2.3
		c-0.4,0-0.7,0.1-1,0.3L4,5.4c-0.6,0.4-1,1-1,1.8v5.7c0,0.7,0.4,1.4,1,1.8L9,17.5c0.6,0.4,1.4,0.4,2,0l4.9-2.9c0.6-0.4,1-1,1-1.8
		V7.1c0-0.7-0.4-1.4-1-1.8L11,2.5C10.7,2.4,10.3,2.3,10,2.3z"/>
</g>
<g>
	<path class="st0" d="M10,14.2c-0.3,0-0.6-0.3-0.6-0.6s0.3-0.6,0.6-0.6s0.6,0.2,0.6,0.6v0.1C10.6,13.9,10.3,14.2,10,14.2z"/>
</g>
</svg>
