<svg version="1.1" id="Layer_1" xmlns="http://www.w3.org/2000/svg" xmlns:xlink="http://www.w3.org/1999/xlink" x="0px" y="0px"
	 viewBox="0 0 18 18" style="enable-background:new 0 0 18 18;" xml:space="preserve">
<style type="text/css">
	.st0{fill:#001E50;}
</style>
<g>
	<path class="st0" d="M4.9,17.1c-0.3,0-0.6-0.3-0.6-0.6v-5.2c0-0.3,0.3-0.6,0.6-0.6s0.6,0.3,0.6,0.6v5.2C5.5,16.8,5.2,17.1,4.9,17.1
		z"/>
</g>
<g>
	<path class="st0" d="M4.9,4.3c-0.3,0-0.6-0.3-0.6-0.6V1.5c0-0.3,0.3-0.6,0.6-0.6s0.6,0.3,0.6,0.6v2.2C5.5,4.1,5.2,4.3,4.9,4.3z"/>
</g>
<g>
	<path class="st0" d="M13.1,17.1c-0.3,0-0.6-0.3-0.6-0.6v-2.2c0-0.3,0.3-0.6,0.6-0.6s0.6,0.3,0.6,0.6v2.2
		C13.7,16.8,13.5,17.1,13.1,17.1z"/>
</g>
<g>
	<path class="st0" d="M13.1,7.3c-0.3,0-0.6-0.3-0.6-0.6V1.5c0-0.3,0.3-0.6,0.6-0.6s0.6,0.3,0.6,0.6v5.2C13.7,7.1,13.5,7.3,13.1,7.3z
		"/>
</g>
<g>
	<path class="st0" d="M5.6,11.8H4.1C2.8,11.8,2,11.1,2,9.7V5.2c0-1.3,0.8-2.1,2.1-2.1h1.5c1.3,0,2.1,0.8,2.1,2.1v4.5
		C7.7,11.1,6.9,11.8,5.6,11.8z M4.1,4.3c-0.6,0-0.9,0.3-0.9,0.9v4.5c0,0.6,0.3,0.9,0.9,0.9h1.5c0.6,0,0.9-0.3,0.9-0.9V5.2
		c0-0.6-0.3-0.9-0.9-0.9H4.1z"/>
</g>
<g>
	<path class="st0" d="M13.9,14.8h-1.5c-1.3,0-2.1-0.8-2.1-2.1V8.2c0-1.3,0.8-2.1,2.1-2.1h1.5c1.3,0,2.1,0.8,2.1,2.1v4.5
		C16,14.1,15.2,14.8,13.9,14.8z M12.4,7.3c-0.6,0-0.9,0.3-0.9,0.9v4.5c0,0.6,0.3,0.9,0.9,0.9h1.5c0.6,0,0.9-0.3,0.9-0.9V8.2
		c0-0.6-0.3-0.9-0.9-0.9H12.4z"/>
</g>
</svg>
