<svg version="1.1" id="Layer_1" xmlns="http://www.w3.org/2000/svg" xmlns:xlink="http://www.w3.org/1999/xlink" x="0px" y="0px"
	 viewBox="0 0 18 18" style="enable-background:new 0 0 18 18;" xml:space="preserve">
<style type="text/css">
	.st0{fill:#4DBFFF;}
</style>
<g>
	<path class="st0" d="M6.7,16.9c-3.9,0-5.5-1.7-5.5-5.4V6.6c0-3.8,1.7-5.4,5.4-5.4c3.5,0,5.2,1.4,5.5,4.4c0,0.4-0.3,0.8-0.7,0.8
		c-0.4,0-0.8-0.3-0.8-0.7c-0.2-2.2-1.3-3.1-3.9-3.1c-3,0-4,1-4,3.9v4.9c0,3,1,3.9,3.9,3.9c2.8,0,3.8-0.8,4-3.1
		c0-0.4,0.4-0.7,0.8-0.7c0.4,0,0.7,0.4,0.7,0.8C11.8,15.5,10.1,16.9,6.7,16.9z"/>
</g>
<g>
	<path class="st0" d="M15.3,9.8H6.8C6.3,9.8,6,9.4,6,9s0.3-0.8,0.8-0.8h8.5C15.7,8.2,16,8.6,16,9S15.7,9.8,15.3,9.8z"/>
</g>
<g>
	<path class="st0" d="M13.6,12.3c-0.2,0-0.4-0.1-0.5-0.2c-0.3-0.3-0.3-0.8,0-1.1l2-2l-2-2c-0.3-0.3-0.3-0.8,0-1.1s0.8-0.3,1.1,0
		l2.5,2.5c0.3,0.3,0.3,0.8,0,1.1L14.1,12C14,12.2,13.8,12.3,13.6,12.3z"/>
</g>
</svg>
