<svg width="20" height="20" viewBox="0 0 20 20" fill="none" xmlns="http://www.w3.org/2000/svg">
<path d="M0.0791016 10.0001C0.0791016 4.52086 4.52086 0.0791016 10.0001 0.0791016C15.4792 0.0791016 19.921 4.52086 19.921 10.0001C19.921 15.4792 15.4792 19.921 10.0001 19.921C4.52086 19.921 0.0791016 15.4792 0.0791016 10.0001Z" fill="white"/>
<g clip-path="url(#clip0_359_20492)">
<path d="M10.0002 18.182C14.5189 18.182 18.182 14.5189 18.182 10.0002C18.182 5.48148 14.5189 1.81836 10.0002 1.81836C5.48148 1.81836 1.81836 5.48148 1.81836 10.0002C1.81836 14.5189 5.48148 18.182 10.0002 18.182Z" fill="#F0F0F0"/>
<path d="M18.1819 10.0001C18.1819 6.48217 15.9616 3.48318 12.8459 2.32715V17.673C15.9616 16.5169 18.1819 13.518 18.1819 10.0001Z" fill="#D80027"/>
<path d="M1.81836 10.0001C1.81836 13.518 4.03873 16.5169 7.15434 17.673V2.32715C4.03873 3.48318 1.81836 6.48217 1.81836 10.0001Z" fill="#0052B4"/>
</g>
<defs>
<clipPath id="clip0_359_20492">
<rect width="16.3636" height="16.3636" fill="white" transform="translate(1.81836 1.81836)"/>
</clipPath>
</defs>
</svg>
