<svg width="20" height="20" viewBox="0 0 20 20" fill="none" xmlns="http://www.w3.org/2000/svg">
<path d="M0.0791016 10.0001C0.0791016 4.52086 4.52086 0.0791016 10.0001 0.0791016C15.4792 0.0791016 19.921 4.52086 19.921 10.0001C19.921 15.4792 15.4792 19.921 10.0001 19.921C4.52086 19.921 0.0791016 15.4792 0.0791016 10.0001Z" fill="white"/>
<g clip-path="url(#clip0_359_20497)">
<path d="M2.32715 12.8462C3.48318 15.9618 6.48217 18.1822 10.0001 18.1822C13.518 18.1822 16.5169 15.9618 17.673 12.8462L10.0001 12.1348L2.32715 12.8462Z" fill="#FFDA44"/>
<path d="M10.0001 1.81836C6.48217 1.81836 3.48318 4.0387 2.32715 7.15434L10.0001 7.86578L17.673 7.15431C16.5169 4.0387 13.518 1.81836 10.0001 1.81836Z" fill="black"/>
<path d="M2.32726 7.1543C1.99839 8.04065 1.81836 8.99933 1.81836 10.0001C1.81836 11.0009 1.99839 11.9596 2.32726 12.846H17.6731C18.002 11.9596 18.182 11.0009 18.182 10.0001C18.182 8.99933 18.002 8.04065 17.6731 7.1543H2.32726Z" fill="#D80027"/>
</g>
<defs>
<clipPath id="clip0_359_20497">
<rect width="16.3636" height="16.3636" fill="white" transform="translate(1.81836 1.81836)"/>
</clipPath>
</defs>
</svg>
