<svg version="1.1" id="Layer_1" xmlns="http://www.w3.org/2000/svg" xmlns:xlink="http://www.w3.org/1999/xlink" x="0px" y="0px"
	 viewBox="0 0 24 24" style="enable-background:new 0 0 24 24;" xml:space="preserve">
<style type="text/css">
	.st0{fill:#604EFF;}
</style>
<g>
	<path class="st0" d="M12,20.2c-4.5,0-8.2-3.7-8.2-8.2S7.5,3.8,12,3.8s8.2,3.7,8.2,8.2S16.5,20.2,12,20.2z M12,5.2
		c-3.7,0-6.8,3-6.8,6.8c0,3.7,3,6.8,6.8,6.8c3.7,0,6.8-3,6.8-6.8C18.8,8.3,15.7,5.2,12,5.2z"/>
</g>
<g>
	<path class="st0" d="M12,15.8c-2.1,0-3.8-1.7-3.8-3.8c0-2.1,1.7-3.8,3.8-3.8c2.1,0,3.8,1.7,3.8,3.8C15.8,14.1,14.1,15.8,12,15.8z
		 M12,9.8c-1.2,0-2.2,1-2.2,2.2c0,1.2,1,2.2,2.2,2.2c1.2,0,2.2-1,2.2-2.2C14.2,10.8,13.2,9.8,12,9.8z"/>
</g>
<g>
	<path class="st0" d="M12,4.8c-0.4,0-0.8-0.3-0.8-0.8V2c0-0.4,0.3-0.8,0.8-0.8s0.8,0.3,0.8,0.8v2C12.8,4.4,12.4,4.8,12,4.8z"/>
</g>
<g>
	<path class="st0" d="M4,12.8H2c-0.4,0-0.8-0.3-0.8-0.8s0.3-0.8,0.8-0.8h2c0.4,0,0.8,0.3,0.8,0.8S4.4,12.8,4,12.8z"/>
</g>
<g>
	<path class="st0" d="M12,22.8c-0.4,0-0.8-0.3-0.8-0.8v-2c0-0.4,0.3-0.8,0.8-0.8s0.8,0.3,0.8,0.8v2C12.8,22.4,12.4,22.8,12,22.8z"/>
</g>
<g>
	<path class="st0" d="M22,12.8h-2c-0.4,0-0.8-0.3-0.8-0.8s0.3-0.8,0.8-0.8h2c0.4,0,0.8,0.3,0.8,0.8S22.4,12.8,22,12.8z"/>
</g>
</svg>
