<svg width="137" height="36" viewBox="0 0 137 36" fill="none" xmlns="http://www.w3.org/2000/svg">
<path d="M26.8846 8.03062H1.3439C0.613238 8.03062 0.0391429 7.44669 0.0391429 6.71186V1.63368C0.0391429 0.898852 0.613238 0.314926 1.3439 0.314926H26.8846C27.6153 0.314926 28.1894 0.898852 28.1894 1.63368V6.71843C28.1894 7.45325 27.5761 8.03062 26.8846 8.03062ZM61.6891 34.3729V29.2881C61.6891 28.5533 61.115 27.9694 60.3844 27.9694H35.5026C34.7719 27.9694 34.1978 28.5533 34.1978 29.2881V34.3729C34.1978 35.1077 34.7719 35.6916 35.5026 35.6916H60.3844C61.115 35.6916 61.6891 35.1077 61.6891 34.3729ZM10.3076 27.9759L19.3822 17.8458C19.8454 17.3406 19.8454 16.5271 19.3431 16.0219L15.768 12.4133C15.2266 11.8688 14.385 11.9081 13.8827 12.4527L0.345762 27.5823C0.117429 27.8185 0 28.1268 0 28.4746V34.3729C0 35.1077 0.574095 35.6916 1.30476 35.6916H26.8455C27.5761 35.6916 28.1502 35.1077 28.1502 34.3729V29.2881C28.1502 28.5533 27.5761 27.9694 26.8455 27.9694H10.3076V27.9759ZM61.6891 6.71186V1.63368C61.6891 0.898852 61.115 0.314926 60.3844 0.314926H35.5026C34.7719 0.314926 34.1978 0.898852 34.1978 1.63368V20.5227C34.1978 21.2575 34.7719 21.8414 35.5026 21.8414H55.3871C56.1178 21.8414 56.6919 21.2575 56.6919 20.5227V15.4839C56.6919 14.749 56.1178 14.1651 55.3871 14.1651H41.8437V8.03718H60.3844C61.115 8.03062 61.6891 7.45325 61.6891 6.71186ZM90.6157 26.152L94.1908 29.7605C94.7322 30.3051 94.6931 31.1974 94.1125 31.7026C86.9232 37.8699 76.035 37.404 69.459 30.2264C63.1505 23.3964 63.1505 12.6561 69.459 5.78677C76.035 -1.39092 86.9232 -1.89612 94.1125 4.31055C94.6866 4.81575 94.7257 5.70804 94.1908 6.2526L90.6157 9.86113C90.1525 10.327 89.3827 10.3663 88.8869 9.97922C84.7312 6.64626 78.5401 7.03335 74.8868 11.2192C71.501 15.0574 71.501 20.9557 74.8868 24.7939C78.5401 28.9863 84.7312 29.4128 88.8869 26.0339C89.4219 25.6468 90.1525 25.6862 90.6157 26.152ZM137 18.0033C137 27.9366 129.002 36 119.151 36C109.3 36 101.302 27.93 101.302 18.0033C101.302 8.07654 109.306 0 119.151 0C128.995 0 137 8.06998 137 18.0033ZM129.348 18.0033C129.348 12.3412 124.768 7.72225 119.157 7.72225C113.547 7.72225 108.967 12.3412 108.967 18.0033C108.967 23.6654 113.547 28.2843 119.157 28.2843C124.807 28.2843 129.348 23.6654 129.348 18.0033ZM97.4983 20.5227V15.4839C97.4983 14.749 96.9242 14.1651 96.1936 14.1651H81.6911C80.9605 14.1651 80.3864 14.749 80.3864 15.4839V20.5292C80.3864 21.2641 80.9605 21.848 81.6911 21.848H96.1936C96.9242 21.8414 97.4983 21.2641 97.4983 20.5227Z" fill="white"/>
</svg>
