<svg width="20" height="21" viewBox="0 0 20 21" fill="none" xmlns="http://www.w3.org/2000/svg">
<path d="M7.62533 7.07031C7.15866 7.07031 6.79199 7.44531 6.79199 7.90365C6.79199 8.36198 7.16699 8.73698 7.62533 8.73698C8.08366 8.73698 8.45866 8.36198 8.45866 7.90365C8.45866 7.44531 8.08366 7.07031 7.62533 7.07031Z" fill="#C5CDD4"/>
<path d="M17.8837 5.02747C17.1837 3.40247 15.642 2.49414 13.492 2.49414H6.50866C3.83366 2.49414 1.66699 4.66081 1.66699 7.33581V14.3191C1.66699 16.4691 2.57533 18.0108 4.20033 18.7108C4.35866 18.7775 4.54199 18.7358 4.65866 18.6191L17.792 5.48581C17.917 5.36081 17.9587 5.17747 17.8837 5.02747ZM8.77533 11.0275C8.45033 11.3441 8.02533 11.4941 7.60033 11.4941C7.17533 11.4941 6.75033 11.3358 6.42533 11.0275C5.57533 10.2275 4.64199 8.95247 5.00033 7.43581C5.31699 6.06081 6.53366 5.44414 7.60033 5.44414C8.66699 5.44414 9.88366 6.06081 10.2003 7.44414C10.5503 8.95247 9.61699 10.2275 8.77533 11.0275Z" fill="#C5CDD4"/>
<path d="M16.2251 17.9361C16.4084 18.1194 16.3834 18.4194 16.1584 18.5444C15.4251 18.9527 14.5334 19.1611 13.4917 19.1611H6.50841C6.26674 19.1611 6.16674 18.8777 6.33341 18.7111L11.3667 13.6777C11.5334 13.5111 11.7917 13.5111 11.9584 13.6777L16.2251 17.9361Z" fill="#C5CDD4"/>
<path d="M18.3335 7.33556V14.3189C18.3335 15.3606 18.1251 16.2606 17.7168 16.9856C17.5918 17.2106 17.2918 17.2272 17.1085 17.0522L12.8418 12.7856C12.6751 12.6189 12.6751 12.3606 12.8418 12.1939L17.8751 7.16056C18.0501 6.99389 18.3335 7.09389 18.3335 7.33556Z" fill="#C5CDD4"/>
</svg>
