<svg version="1.1" id="Layer_1" xmlns="http://www.w3.org/2000/svg" xmlns:xlink="http://www.w3.org/1999/xlink" x="0px" y="0px"
	 viewBox="0 0 24 24" style="enable-background:new 0 0 24 24;" xml:space="preserve">
<style type="text/css">
	.st0{fill:#001E50;}
</style>
<g>
	<path class="st0" d="M18,11.8H6c-0.2,0-0.4-0.1-0.5-0.2c-0.1-0.1-0.2-0.3-0.1-0.5l0.8-4.1c0.3-1.3,0.8-2.5,3.1-2.5h5.3
		c2.3,0,2.8,1.3,3.1,2.5l0.8,4.1c0,0.2,0,0.4-0.1,0.5C18.4,11.8,18.2,11.8,18,11.8z M6.7,10.6h10.5l-0.7-3.3c-0.2-1-0.4-1.6-1.9-1.6
		H9.4c-1.5,0-1.7,0.6-1.9,1.6L6.7,10.6z"/>
</g>
<g>
	<path class="st0" d="M18,20.1h-1.4c-1.2,0-1.5-0.7-1.6-1.2l-0.2-0.5c-0.2-0.6-0.2-0.6-0.9-0.6h-3.8c-0.6,0-0.7,0.1-0.9,0.6
		l-0.2,0.5c-0.1,0.4-0.4,1.2-1.6,1.2H6c-0.6,0-1.2-0.3-1.6-0.7c-0.4-0.4-0.6-1-0.5-1.6l0.4-4.6c0.1-1.3,0.4-2.6,2.9-2.6h9.6
		c2.4,0,2.8,1.3,2.9,2.6l0.4,4.6c0.1,0.6-0.1,1.2-0.5,1.6C19.2,19.8,18.6,20.1,18,20.1z M10.1,16.7h3.8c1.5,0,1.8,0.8,2,1.4l0.2,0.5
		c0.1,0.4,0.1,0.4,0.5,0.4H18c0.3,0,0.5-0.1,0.7-0.3c0.2-0.2,0.2-0.4,0.2-0.7c0,0,0,0,0,0l-0.4-4.6c-0.1-0.9-0.1-1.5-1.7-1.5H7.2
		c-1.5,0-1.6,0.6-1.7,1.5l-0.4,4.6c0,0.2,0.1,0.5,0.2,0.7c0.2,0.2,0.4,0.3,0.7,0.3h1.4c0.4,0,0.4,0,0.5-0.4l0.2-0.5
		C8.3,17.5,8.6,16.7,10.1,16.7z"/>
</g>
<g>
	<path class="st0" d="M6,9.6H5.2C4.9,9.6,4.6,9.3,4.6,9s0.3-0.6,0.6-0.6H6c0.3,0,0.6,0.3,0.6,0.6S6.3,9.6,6,9.6z"/>
</g>
<g>
	<path class="st0" d="M18.8,9.7H18c-0.4,0-0.8-0.3-0.8-0.8s0.3-0.8,0.8-0.8h0.8c0.4,0,0.8,0.3,0.8,0.8S19.2,9.7,18.8,9.7z"/>
</g>
<g>
	<path class="st0" d="M12,7.3c-0.3,0-0.6-0.3-0.6-0.6V5.2c0-0.3,0.3-0.6,0.6-0.6s0.6,0.3,0.6,0.6v1.5C12.6,7.1,12.3,7.3,12,7.3z"/>
</g>
<g>
	<path class="st0" d="M13.1,7.3h-2.2c-0.3,0-0.6-0.3-0.6-0.6s0.3-0.6,0.6-0.6h2.2c0.3,0,0.6,0.3,0.6,0.6S13.5,7.3,13.1,7.3z"/>
</g>
<g>
	<path class="st0" d="M9.8,14.8H7.5c-0.3,0-0.6-0.3-0.6-0.6s0.3-0.6,0.6-0.6h2.2c0.3,0,0.6,0.3,0.6,0.6S10.1,14.8,9.8,14.8z"/>
</g>
<g>
	<path class="st0" d="M16.5,14.8h-2.2c-0.3,0-0.6-0.3-0.6-0.6s0.3-0.6,0.6-0.6h2.2c0.3,0,0.6,0.3,0.6,0.6S16.8,14.8,16.5,14.8z"/>
</g>
</svg>
