<svg width="14" height="14" viewBox="0 0 14 14" fill="none" xmlns="http://www.w3.org/2000/svg">
<path fill-rule="evenodd" clip-rule="evenodd" d="M9.58973 9.59067C9.76496 9.41543 10.0491 9.41543 10.2243 9.59067L12.7013 12.0677C12.8765 12.2429 12.8765 12.527 12.7013 12.7022C12.526 12.8775 12.2419 12.8775 12.0667 12.7022L9.58973 10.2253C9.4145 10.05 9.4145 9.7659 9.58973 9.59067Z" fill="#848588"/>
<path fill-rule="evenodd" clip-rule="evenodd" d="M6.46094 2.06443C4.03226 2.06443 2.06344 4.03328 2.06344 6.46198C2.06344 8.89069 4.03226 10.8595 6.46094 10.8595C8.88961 10.8595 10.8584 8.89069 10.8584 6.46198C10.8584 4.03328 8.88961 2.06443 6.46094 2.06443ZM1.16602 6.46198C1.16602 3.53764 3.53663 1.16699 6.46094 1.16699C9.38524 1.16699 11.7559 3.53764 11.7559 6.46198C11.7559 9.38633 9.38524 11.757 6.46094 11.757C3.53663 11.757 1.16602 9.38633 1.16602 6.46198Z" fill="#848588"/>
</svg>
