<svg width="21" height="21" viewBox="0 0 21 21" fill="none" xmlns="http://www.w3.org/2000/svg">
<path d="M3.41665 18.4736H17.5833C17.925 18.4736 18.2083 18.757 18.2083 19.0986C18.2083 19.4403 17.925 19.7236 17.5833 19.7236H3.41665C3.07498 19.7236 2.79165 19.4403 2.79165 19.0986C2.79165 18.757 3.07498 18.4736 3.41665 18.4736Z" fill="white"/>
<path d="M16.3333 12.866C15.9916 12.866 15.7083 12.5826 15.7083 12.241V5.19095L5.10831 15.791C4.98331 15.916 4.82498 15.9743 4.66665 15.9743C4.50831 15.9743 4.34998 15.916 4.22498 15.791C3.98331 15.5493 3.98331 15.1493 4.22498 14.9076L14.825 4.30762H7.77498C7.43331 4.30762 7.14998 4.02428 7.14998 3.68262C7.14998 3.34095 7.43331 3.05762 7.77498 3.05762H16.3333C16.4166 3.05762 16.4916 3.07428 16.575 3.10762C16.725 3.16595 16.85 3.29095 16.9083 3.44095C16.9416 3.52428 16.9583 3.59928 16.9583 3.68262V12.241C16.9583 12.5826 16.675 12.866 16.3333 12.866Z" fill="white"/>
</svg>
