<svg version="1.1" id="Layer_1" xmlns="http://www.w3.org/2000/svg" xmlns:xlink="http://www.w3.org/1999/xlink" x="0px" y="0px"
	 viewBox="0 0 18 18" style="enable-background:new 0 0 18 18;" xml:space="preserve">
<style type="text/css">
	.st0{fill:#001E50;}
</style>
<g>
	<path class="st0" d="M4.1,8.1C3.6,8.1,3,7.9,2.6,7.5C1.2,6.2,0.6,4.7,1,3.3c0.4-1.7,1.9-2.4,3.1-2.4c0,0,0,0,0,0
		c1.5,0,2.8,1,3.1,2.4C7.6,4.7,7,6.2,5.6,7.5C5.2,7.9,4.6,8.1,4.1,8.1z M4.1,2.1c-0.8,0-1.7,0.4-2,1.5l0,0c-0.2,1,0.2,2,1.3,3
		c0.4,0.4,1,0.4,1.4,0c0.7-0.7,1.6-1.8,1.3-3C5.8,2.5,4.8,2.1,4.1,2.1z"/>
</g>
<g>
	<path class="st0" d="M13.9,17.1c-0.5,0-1.1-0.2-1.5-0.6c-1.4-1.3-2-2.8-1.6-4.2c0.4-1.7,1.9-2.4,3.2-2.4c0,0,0,0,0,0
		c1.5,0,2.8,1,3.1,2.4c0.3,1.4-0.2,2.9-1.6,4.2C15,16.9,14.4,17.1,13.9,17.1z M13.9,11.1c-0.8,0-1.7,0.4-2,1.5l0,0
		c-0.3,1.2,0.5,2.3,1.3,3c0.4,0.4,1,0.4,1.4,0c0.7-0.7,1.6-1.8,1.3-3C15.6,11.5,14.6,11.1,13.9,11.1L13.9,11.1z"/>
</g>
<g>
	<path class="st0" d="M9,14.8H7c-0.9,0-1.7-0.5-2-1.4c-0.3-0.8-0.1-1.7,0.6-2.3l6-5.2c0.4-0.4,0.3-0.9,0.2-1
		c-0.1-0.1-0.3-0.6-0.8-0.6H9c-0.3,0-0.6-0.3-0.6-0.6S8.7,3.1,9,3.1h2c0.9,0,1.7,0.5,2,1.4c0.3,0.8,0.1,1.7-0.6,2.3l-6,5.2
		c-0.4,0.4-0.3,0.9-0.3,1s0.3,0.6,0.8,0.6h2c0.3,0,0.6,0.3,0.6,0.6S9.3,14.8,9,14.8z"/>
</g>
<g>
	<path class="st0" d="M4.1,4.9c-0.4,0-0.8-0.3-0.8-0.8s0.3-0.7,0.7-0.7h0c0.4,0,0.8,0.3,0.8,0.7S4.5,4.9,4.1,4.9z"/>
</g>
<g>
	<path class="st0" d="M13.9,13.9c-0.4,0-0.8-0.3-0.8-0.8s0.3-0.8,0.7-0.8h0c0.4,0,0.8,0.3,0.8,0.8S14.3,13.9,13.9,13.9z"/>
</g>
</svg>
