<svg width="52" height="52" viewBox="0 0 52 52" fill="none" xmlns="http://www.w3.org/2000/svg">
<circle cx="26.1808" cy="26.1808" r="25.8194" fill="#0064FF"/>
<path fill-rule="evenodd" clip-rule="evenodd" d="M33.0652 18.8887C33.1158 18.9772 33.2044 19.0404 33.3183 19.0404C36.3559 19.0404 38.8366 21.5183 38.8366 24.5525V32.0622C38.8366 35.0964 36.3559 37.5743 33.3183 37.5743H19.0417C15.9915 37.5743 13.5234 35.0964 13.5234 32.0622V24.5525C13.5234 21.5183 15.9915 19.0404 19.0417 19.0404C19.143 19.0404 19.2442 18.9898 19.2822 18.8887L19.3581 18.737C19.4018 18.6451 19.4465 18.5508 19.492 18.4551C19.8158 17.7731 20.174 17.0185 20.396 16.5751C20.9782 15.4373 21.9654 14.8051 23.1931 14.7925H29.1543C30.382 14.8051 31.3819 15.4373 31.9641 16.5751C32.1634 16.9733 32.4671 17.6148 32.7598 18.2331C32.8203 18.3607 32.8802 18.4873 32.9387 18.6105L33.0652 18.8887ZM32.1416 23.7418C32.1416 24.3739 32.6478 24.8796 33.2807 24.8796C33.9135 24.8796 34.4324 24.3739 34.4324 23.7418C34.4324 23.1097 33.9135 22.5913 33.2807 22.5913C32.6478 22.5913 32.1416 23.1097 32.1416 23.7418ZM23.9927 25.7037C24.5875 25.1095 25.3596 24.7934 26.1823 24.7934C27.0049 24.7934 27.777 25.1095 28.3592 25.691C28.9414 26.2726 29.2578 27.0438 29.2578 27.8656C29.2452 29.5597 27.8782 30.9377 26.1823 30.9377C25.3596 30.9377 24.5875 30.6216 24.0053 30.0401C23.4231 29.4585 23.1067 28.6873 23.1067 27.8656V27.8529C23.0941 27.0564 23.4105 26.2852 23.9927 25.7037ZM29.6872 31.3748C28.7886 32.2724 27.5483 32.8287 26.1813 32.8287C24.8524 32.8287 23.612 32.3103 22.6628 31.3748C21.7262 30.4266 21.2073 29.1876 21.2073 27.8601C21.1946 26.5453 21.7136 25.3063 22.6501 24.3581C23.5994 23.41 24.8524 22.8916 26.1813 22.8916C27.5103 22.8916 28.7633 23.41 29.6999 24.3455C30.6365 25.2937 31.1554 26.5453 31.1554 27.8601C31.1427 29.2382 30.5858 30.4771 29.6872 31.3748Z" fill="white"/>
</svg>
