<svg id="Layer_1" data-name="Layer 1" xmlns="http://www.w3.org/2000/svg" viewBox="0 0 16.2 16.18"><defs><style>.cls-1{fill:#001e50;}</style></defs><path class="cls-1" d="M13.34,17.09H4.66A3.77,3.77,0,0,1,.9,13.33V7.77a4.18,4.18,0,0,1,1.45-3L6.4,1.66h0a3.93,3.93,0,0,1,4.46-.11L15.5,4.8a4.16,4.16,0,0,1,1.6,3.08v5.46A3.76,3.76,0,0,1,13.34,17.09ZM7.13,2.6l-4,3.15a3,3,0,0,0-1,2v5.56a2.56,2.56,0,0,0,2.56,2.56h8.68a2.56,2.56,0,0,0,2.56-2.55V7.88a3,3,0,0,0-1.09-2.1L10.17,2.53a2.77,2.77,0,0,0-3,.07Z" transform="translate(-0.9 -0.91)"/><path class="cls-1" d="M5.62,13a.58.58,0,0,1-.42-.17.61.61,0,0,1,0-.85l2.4-2.4a.59.59,0,0,1,.48-.17.6.6,0,0,1,.44.26l.8,1.19L12,8.2a.6.6,0,0,1,.85.85L9.65,12.2a.59.59,0,0,1-.48.17.6.6,0,0,1-.44-.26l-.8-1.19L6.05,12.8A.59.59,0,0,1,5.62,13Z" transform="translate(-0.9 -0.91)"/><path class="cls-1" d="M12.38,10.72a.59.59,0,0,1-.6-.59V9.22h-.9a.59.59,0,0,1-.6-.6.6.6,0,0,1,.6-.6h1.5a.59.59,0,0,1,.59.6v1.51A.58.58,0,0,1,12.38,10.72Z" transform="translate(-0.9 -0.91)"/></svg>