<svg width="18" height="18" viewBox="0 0 18 18" fill="none" xmlns="http://www.w3.org/2000/svg">
<path fill-rule="evenodd" clip-rule="evenodd" d="M7.11189 4.16129C6.01227 4.16129 5.17133 5.00705 5.17133 5.98925C5.17133 6.97144 6.01227 7.8172 7.11189 7.8172C8.21151 7.8172 9.05245 6.97144 9.05245 5.98925C9.05245 5.00705 8.21151 4.16129 7.11189 4.16129ZM4.01748 5.98925C4.01748 4.31097 5.43078 3 7.11189 3C8.793 3 10.2063 4.31097 10.2063 5.98925C10.2063 7.66752 8.793 8.97849 7.11189 8.97849C5.43078 8.97849 4.01748 7.66752 4.01748 5.98925ZM10.3112 3.58065C10.3112 3.25996 10.5695 3 10.8881 3C12.5692 3 13.9825 4.31097 13.9825 5.98925C13.9825 7.66752 12.5692 8.97849 10.8881 8.97849C10.5695 8.97849 10.3112 8.71853 10.3112 8.39785C10.3112 8.07717 10.5695 7.8172 10.8881 7.8172C11.9877 7.8172 12.8287 6.97144 12.8287 5.98925C12.8287 5.00705 11.9877 4.16129 10.8881 4.16129C10.5695 4.16129 10.3112 3.90133 10.3112 3.58065ZM1.5 13.2151C1.5 11.5368 2.91329 10.2258 4.59441 10.2258H9.62937C11.3105 10.2258 12.7238 11.5368 12.7238 13.2151V14.4194C12.7238 14.74 12.4655 15 12.1469 15C11.8282 15 11.5699 14.74 11.5699 14.4194V13.2151C11.5699 12.2329 10.729 11.3871 9.62937 11.3871H4.59441C3.49478 11.3871 2.65385 12.2329 2.65385 13.2151V14.4194C2.65385 14.74 2.39555 15 2.07692 15C1.7583 15 1.5 14.74 1.5 14.4194V13.2151ZM12.514 10.8065C12.514 10.4858 12.7723 10.2258 13.0909 10.2258H13.4056C15.0867 10.2258 16.5 11.5368 16.5 13.2151V14.4194C16.5 14.74 16.2417 15 15.9231 15C15.6045 15 15.3462 14.74 15.3462 14.4194V13.2151C15.3462 12.2329 14.5052 11.3871 13.4056 11.3871H13.0909C12.7723 11.3871 12.514 11.1271 12.514 10.8065Z" fill="#001E50"/>
</svg>
