<svg width="20" height="21" viewBox="0 0 20 21" fill="none" xmlns="http://www.w3.org/2000/svg">
<path fill-rule="evenodd" clip-rule="evenodd" d="M18.3332 5.29199C18.3332 5.63717 18.0534 5.91699 17.7082 5.91699H2.29151C1.94633 5.91699 1.6665 5.63717 1.6665 5.29199C1.6665 4.94681 1.94633 4.66699 2.29151 4.66699H17.7082C18.0534 4.66699 18.3332 4.94681 18.3332 5.29199Z" fill="white"/>
<path fill-rule="evenodd" clip-rule="evenodd" d="M18.3332 10.5003C18.3332 10.8455 18.0534 11.1253 17.7082 11.1253H2.2915C1.94633 11.1253 1.6665 10.8455 1.6665 10.5003C1.6665 10.1551 1.94633 9.87532 2.2915 9.87532H17.7082C18.0534 9.87532 18.3332 10.1551 18.3332 10.5003Z" fill="white"/>
<path fill-rule="evenodd" clip-rule="evenodd" d="M18.3332 15.7087C18.3332 16.0538 18.0534 16.3337 17.7082 16.3337H2.2915C1.94633 16.3337 1.6665 16.0538 1.6665 15.7087C1.6665 15.3635 1.94633 15.0837 2.2915 15.0837H17.7082C18.0534 15.0837 18.3332 15.3635 18.3332 15.7087Z" fill="white"/>
</svg>
