<svg width="20" height="21" version="1.1" id="Layer_1" xmlns="http://www.w3.org/2000/svg" xmlns:xlink="http://www.w3.org/1999/xlink" x="0px" y="0px"
	 viewBox="0 0 20 20" style="enable-background:new 0 0 20 20;" xml:space="preserve">
<style type="text/css">
	.st0{fill:#C5CDD4;}
</style>
<g>
	<path class="st0" d="M13,17.8c-0.4,0-0.7-0.1-1-0.2l-4.4-2.2c-0.3-0.1-0.8-0.1-1,0l-2,1.1C3.9,17,3,17.1,2.3,16.7
		c-0.7-0.4-1-1.2-1-2.1V6.5c0-0.7,0.5-1.6,1.1-2l3.6-2.1c0.6-0.3,1.5-0.4,2.1-0.1l4.4,2.2c0.3,0.1,0.8,0.1,1,0l2-1.1
		c0.8-0.5,1.7-0.5,2.4-0.2c0.7,0.4,1,1.2,1,2.1v8.1c0,0.7-0.5,1.6-1.1,2l-3.6,2.1C13.9,17.7,13.5,17.8,13,17.8z M7.2,14.1
		c0.4,0,0.7,0.1,1,0.2l4.4,2.2c0.3,0.1,0.8,0.1,1,0l3.6-2.1c0.3-0.2,0.5-0.6,0.5-0.9V5.4c0-0.5-0.2-0.9-0.4-1.1
		c-0.3-0.2-0.7-0.1-1.2,0.2l-2,1.1C13.6,5.9,12.7,6,12,5.7L7.7,3.5c-0.3-0.1-0.8-0.1-1,0L3,5.6C2.8,5.7,2.5,6.2,2.5,6.5v8.1
		c0,0.5,0.2,0.9,0.4,1.1c0.3,0.2,0.7,0.1,1.2-0.2l2-1.1C6.4,14.2,6.8,14.1,7.2,14.1z"/>
</g>
<g>
	<path class="st0" d="M7.1,14.8c-0.3,0-0.6-0.3-0.6-0.6V3.3c0-0.3,0.3-0.6,0.6-0.6S7.7,3,7.7,3.3v10.8C7.7,14.5,7.5,14.8,7.1,14.8z"
		/>
</g>
<g>
	<path class="st0" d="M13.1,17.3c-0.3,0-0.6-0.3-0.6-0.6V5.5c0-0.3,0.3-0.6,0.6-0.6s0.6,0.3,0.6,0.6v11.1
		C13.7,17,13.4,17.3,13.1,17.3z"/>
</g>
</svg>
