<svg width="18" height="18" viewBox="0 0 18 18" fill="none" xmlns="http://www.w3.org/2000/svg">
<path d="M17.134 12.267L11.8007 2.66699C11.084 1.37533 10.0924 0.666992 9.00071 0.666992C7.90905 0.666992 6.91738 1.37533 6.20071 2.66699L0.86738 12.267C0.19238 13.492 0.11738 14.667 0.659047 15.592C1.20071 16.517 2.26738 17.0253 3.66738 17.0253H14.334C15.734 17.0253 16.8007 16.517 17.3424 15.592C17.884 14.667 17.809 13.4837 17.134 12.267ZM8.37571 6.50033C8.37571 6.15866 8.65905 5.87533 9.00071 5.87533C9.34238 5.87533 9.62571 6.15866 9.62571 6.50033V10.667C9.62571 11.0087 9.34238 11.292 9.00071 11.292C8.65905 11.292 8.37571 11.0087 8.37571 10.667V6.50033ZM9.59238 13.7587C9.55071 13.792 9.50905 13.8253 9.46738 13.8587C9.41738 13.892 9.36738 13.917 9.31738 13.9337C9.26738 13.9587 9.21738 13.9753 9.15905 13.9837C9.10905 13.992 9.05071 14.0003 9.00071 14.0003C8.95071 14.0003 8.89238 13.992 8.83405 13.9837C8.78405 13.9753 8.73405 13.9587 8.68405 13.9337C8.63405 13.917 8.58405 13.892 8.53405 13.8587C8.49238 13.8253 8.45071 13.792 8.40905 13.7587C8.25905 13.6003 8.16738 13.3837 8.16738 13.167C8.16738 12.9503 8.25905 12.7337 8.40905 12.5753C8.45071 12.542 8.49238 12.5087 8.53405 12.4753C8.58405 12.442 8.63405 12.417 8.68405 12.4003C8.73405 12.3753 8.78405 12.3587 8.83405 12.3503C8.94238 12.3253 9.05905 12.3253 9.15905 12.3503C9.21738 12.3587 9.26738 12.3753 9.31738 12.4003C9.36738 12.417 9.41738 12.442 9.46738 12.4753C9.50905 12.5087 9.55071 12.542 9.59238 12.5753C9.74238 12.7337 9.83405 12.9503 9.83405 13.167C9.83405 13.3837 9.74238 13.6003 9.59238 13.7587Z" fill="#FA1464"/>
</svg>
