<svg width="20" height="20" viewBox="0 0 20 20" fill="none" xmlns="http://www.w3.org/2000/svg">
<path d="M0.0791016 10.0001C0.0791016 4.52086 4.52086 0.0791016 10.0001 0.0791016C15.4792 0.0791016 19.921 4.52086 19.921 10.0001C19.921 15.4792 15.4792 19.921 10.0001 19.921C4.52086 19.921 0.0791016 15.4792 0.0791016 10.0001Z" fill="white"/>
<g clip-path="url(#clip0_359_20502)">
<path d="M10.0002 18.182C14.5189 18.182 18.182 14.5189 18.182 10.0002C18.182 5.48148 14.5189 1.81836 10.0002 1.81836C5.48148 1.81836 1.81836 5.48148 1.81836 10.0002C1.81836 14.5189 5.48148 18.182 10.0002 18.182Z" fill="#F0F0F0"/>
<path d="M10.0001 1.81836C6.48217 1.81836 3.48318 4.0387 2.32715 7.15434H17.673C16.5169 4.0387 13.518 1.81836 10.0001 1.81836Z" fill="#A2001D"/>
<path d="M10.0001 18.1822C13.518 18.1822 16.5169 15.9618 17.673 12.8462H2.32715C3.48318 15.9618 6.48217 18.1822 10.0001 18.1822Z" fill="#0052B4"/>
</g>
<defs>
<clipPath id="clip0_359_20502">
<rect width="16.3636" height="16.3636" fill="white" transform="translate(1.81836 1.81836)"/>
</clipPath>
</defs>
</svg>
