<svg width="24" height="24" viewBox="0 0 24 24" fill="none" xmlns="http://www.w3.org/2000/svg">
<path fill-rule="evenodd" clip-rule="evenodd" d="M12 3.46341C7.28537 3.46341 3.46341 7.28537 3.46341 12C3.46341 16.7146 7.28537 20.5366 12 20.5366C16.7146 20.5366 20.5366 16.7146 20.5366 12C20.5366 7.28537 16.7146 3.46341 12 3.46341ZM2 12C2 6.47715 6.47715 2 12 2C17.5228 2 22 6.47715 22 12C22 17.5228 17.5228 22 12 22C6.47715 22 2 17.5228 2 12ZM8.17886 8.91057C8.17886 8.50646 8.50646 8.17886 8.91057 8.17886H8.92087C9.32498 8.17886 9.65258 8.50646 9.65258 8.91057C9.65258 9.31468 9.32498 9.64228 8.92087 9.64228H8.91057C8.50646 9.64228 8.17886 9.31468 8.17886 8.91057ZM14.3577 8.91057C14.3577 8.50646 14.6853 8.17886 15.0894 8.17886H15.0997C15.5038 8.17886 15.8314 8.50646 15.8314 8.91057C15.8314 9.31468 15.5038 9.64228 15.0997 9.64228H15.0894C14.6853 9.64228 14.3577 9.31468 14.3577 8.91057ZM8.46503 13.6191C8.46517 13.6193 8.46488 13.6189 8.46503 13.6191L8.47243 13.6286C8.48024 13.6384 8.49368 13.6552 8.51263 13.6777C8.55057 13.7229 8.61026 13.7913 8.69063 13.8752C8.85198 14.0435 9.09312 14.2706 9.4053 14.4977C10.0325 14.9538 10.9143 15.3875 12 15.3875C13.0857 15.3875 13.9675 14.9538 14.5947 14.4977C14.9069 14.2706 15.148 14.0435 15.3094 13.8752C15.3897 13.7913 15.4494 13.7229 15.4874 13.6777C15.5063 13.6552 15.5198 13.6384 15.5276 13.6286L15.535 13.6191L15.5342 13.6202C15.7768 13.2972 16.2351 13.2319 16.5583 13.4743C16.8816 13.7167 16.9471 14.1754 16.7046 14.4986L16.1192 14.0596C16.7046 14.4986 16.7048 14.4984 16.7046 14.4986L16.7038 14.4997L16.7029 14.5009L16.7007 14.5038L16.6944 14.512L16.675 14.5369C16.6589 14.5572 16.6366 14.5848 16.6083 14.6185C16.5517 14.6859 16.4706 14.7785 16.3659 14.8877C16.1572 15.1055 15.8512 15.3933 15.4554 15.6812C14.6666 16.2549 13.4889 16.8509 12 16.8509C10.5111 16.8509 9.33337 16.2549 8.54456 15.6812C8.14875 15.3933 7.84281 15.1055 7.63406 14.8877C7.52939 14.7785 7.44829 14.6859 7.39169 14.6185C7.36337 14.5848 7.34112 14.5572 7.32504 14.5369L7.30556 14.512L7.29931 14.5038L7.29706 14.5009L7.29615 14.4997C7.29597 14.4994 7.2954 14.4987 7.85936 14.0757L7.29539 14.4986C7.05293 14.1754 7.11845 13.7167 7.44173 13.4743C7.76434 13.2323 8.22216 13.2976 8.46503 13.6191Z" fill="#001E50"/>
</svg>
