<svg version="1.1" id="Layer_1" xmlns="http://www.w3.org/2000/svg" xmlns:xlink="http://www.w3.org/1999/xlink" x="0px" y="0px"
	 viewBox="0 0 24 24" style="enable-background:new 0 0 24 24;" xml:space="preserve">
<style type="text/css">
	.st0{fill:#001E50;}
</style>
<g>
	<path class="st0" d="M15.5,14.2h-12c-0.2,0-0.3-0.1-0.4-0.2C3,13.9,3,13.8,3,13.6l0.9-4.1c0.3-1.3,0.8-2.5,3-2.5h5.3
		c2.2,0,2.7,1.2,3,2.5l0.9,4.1c0,0.1,0,0.3-0.1,0.4C15.8,14.2,15.7,14.2,15.5,14.2z M4.1,13.2h10.8l-0.7-3.4c-0.2-1-0.5-1.7-2-1.7
		H6.9c-1.6,0-1.8,0.7-2,1.7L4.1,13.2z"/>
</g>
<g>
	<path class="st0" d="M15.5,22.5h-1.4c-1.1,0-1.4-0.7-1.5-1.1l-0.2-0.5c-0.2-0.6-0.2-0.7-1-0.7H7.6c-0.7,0-0.8,0.2-1,0.7l-0.1,0.4
		c-0.1,0.4-0.4,1.1-1.5,1.1H3.5c-0.6,0-1.1-0.2-1.5-0.7c-0.4-0.4-0.6-1-0.5-1.5l0.4-4.6c0.1-1.3,0.4-2.5,2.8-2.5h9.6
		c2.3,0,2.7,1.2,2.8,2.5l0.4,4.6c0,0,0,0,0,0c0.1,0.6-0.1,1.1-0.5,1.5C16.6,22.3,16,22.5,15.5,22.5z M7.6,19.2h3.8
		c1.4,0,1.7,0.7,1.9,1.4l0.2,0.5c0.1,0.4,0.2,0.4,0.6,0.4h1.4c0.3,0,0.6-0.1,0.8-0.3c0.2-0.2,0.3-0.5,0.3-0.8l-0.4-4.6
		c-0.1-1-0.2-1.6-1.8-1.6H4.7c-1.6,0-1.7,0.5-1.8,1.6l-0.4,4.6c0,0.3,0.1,0.5,0.2,0.8c0.2,0.2,0.5,0.3,0.8,0.3h1.4
		c0.5,0,0.5,0,0.6-0.4l0.2-0.5C5.9,20,6.1,19.2,7.6,19.2z"/>
</g>
<g>
	<path class="st0" d="M3.5,12H2.8c-0.3,0-0.5-0.2-0.5-0.5S2.5,11,2.8,11h0.8C3.8,11,4,11.2,4,11.5S3.8,12,3.5,12z"/>
</g>
<g>
	<path class="st0" d="M16.2,12h-0.8c-0.3,0-0.5-0.2-0.5-0.5s0.2-0.5,0.5-0.5h0.8c0.3,0,0.5,0.2,0.5,0.5S16.5,12,16.2,12z"/>
</g>
<g>
	<path class="st0" d="M7.2,17.3H5c-0.3,0-0.5-0.2-0.5-0.5s0.2-0.5,0.5-0.5h2.2c0.3,0,0.5,0.2,0.5,0.5S7.5,17.3,7.2,17.3z"/>
</g>
<g>
	<path class="st0" d="M14,17.3h-2.2c-0.3,0-0.5-0.2-0.5-0.5s0.2-0.5,0.5-0.5H14c0.3,0,0.5,0.2,0.5,0.5S14.3,17.3,14,17.3z"/>
</g>
<g>
	<path class="st0" d="M18.7,9.2c-0.1,0-0.1,0-0.2,0c-0.3-0.1-0.4-0.4-0.3-0.7C18.5,8,18.4,7.3,18,6.7c-0.4-0.6-1-1-1.6-1
		c-0.3,0-0.5-0.2-0.5-0.5c0-0.3,0.2-0.5,0.5-0.5c0.9,0,1.8,0.5,2.4,1.4c0.6,0.9,0.7,1.9,0.4,2.8C19.1,9.1,18.9,9.2,18.7,9.2z"/>
</g>
<g>
	<path class="st0" d="M21.8,10.2c0,0-0.1,0-0.1,0c-0.3-0.1-0.4-0.4-0.3-0.6c0.4-1.4,0.1-3.1-0.9-4.5c-0.9-1.4-2.4-2.4-3.9-2.6
		c-0.3,0-0.5-0.3-0.4-0.6c0-0.3,0.3-0.5,0.6-0.4c1.8,0.2,3.5,1.3,4.6,3c1.1,1.7,1.5,3.7,1,5.4C22.2,10.1,22,10.2,21.8,10.2z"/>
</g>
</svg>
