<svg width="20" height="16" viewBox="0 0 20 16" fill="none" xmlns="http://www.w3.org/2000/svg">
<path fill-rule="evenodd" clip-rule="evenodd" d="M7.871 3H3.4295C2.975 3 2.5775 3.3065 2.4625 3.746L1.5425 7.252L0.59 7.6805C0.231 7.842 0 8.199 0 8.5925V12C0 12.265 0.1055 12.5195 0.293 12.707C0.355 12.7695 0.425 12.8225 0.5 12.866V14.44C0.5 14.854 0.6645 15.2505 0.957 15.543C1.2495 15.8355 1.646 16 2.06 16H2.94C3.354 16 3.7505 15.8355 4.043 15.543C4.3355 15.2505 4.5 14.854 4.5 14.44V13H9.5V14.44C9.5 14.854 9.6645 15.2505 9.957 15.543C10.2495 15.8355 10.646 16 11.06 16H11.94C12.354 16 12.7505 15.8355 13.043 15.543C13.3355 15.2505 13.5 14.854 13.5 14.44V12.866C13.575 12.8225 13.645 12.7695 13.707 12.707C13.8945 12.5195 14 12.265 14 12V10H15.5V11.44C15.5 11.854 15.6645 12.2505 15.957 12.543C16.2495 12.8355 16.646 13 17.06 13H17.94C18.354 13 18.7505 12.8355 19.043 12.543C19.3355 12.2505 19.5 11.854 19.5 11.44V9.866C19.575 9.8225 19.645 9.7695 19.707 9.707C19.8945 9.5195 20 9.265 20 9V5.5925C20 5.199 19.769 4.842 19.41 4.6805L18.2125 4.142L17.3215 0.746C17.206 0.3065 16.809 0 16.354 0C15.0395 0 10.744 0 9.4295 0C8.975 0 8.5775 0.3065 8.4625 0.746L7.871 3ZM3.5 13V14.44C3.5 14.5885 3.441 14.731 3.336 14.836C3.231 14.941 3.0885 15 2.94 15H2.06C1.9115 15 1.769 14.941 1.664 14.836C1.559 14.731 1.5 14.5885 1.5 14.44V13H3.5ZM12.5 13V14.44C12.5 14.5885 12.441 14.731 12.336 14.836C12.231 14.941 12.0885 15 11.94 15H11.06C10.9115 15 10.769 14.941 10.664 14.836C10.559 14.731 10.5 14.5885 10.5 14.44V13H12.5ZM11.682 8H2.318L1 8.5925V12H13V8.5925L11.682 8ZM18.5 10V11.44C18.5 11.5885 18.441 11.731 18.336 11.836C18.231 11.941 18.0885 12 17.94 12H17.06C16.9115 12 16.769 11.941 16.664 11.836C16.559 11.731 16.5 11.5885 16.5 11.44V10H18.5ZM9.5 10.5H11.5C11.776 10.5 12 10.276 12 10C12 9.724 11.776 9.5 11.5 9.5H9.5C9.224 9.5 9 9.724 9 10C9 10.276 9.224 10.5 9.5 10.5ZM2.5 10.5H4.5C4.776 10.5 5 10.276 5 10C5 9.724 4.776 9.5 4.5 9.5H2.5C2.224 9.5 2 9.724 2 10C2 10.276 2.224 10.5 2.5 10.5ZM17.682 5H11.6505L12.2125 7.142L13.41 7.6805C13.769 7.842 14 8.199 14 8.5925V9H19V5.5925L17.682 5ZM15.5 7.5H17.5C17.776 7.5 18 7.276 18 7C18 6.724 17.776 6.5 17.5 6.5H15.5C15.224 6.5 15 6.724 15 7C15 7.276 15.224 7.5 15.5 7.5ZM2.6425 7L3.4295 4H10.3545L11.1415 7H2.6425ZM8.905 3H10.354C10.809 3 11.206 3.3065 11.3215 3.746L11.388 4H17.1415L16.3545 1H9.4295L8.905 3Z" fill="#001E50"/>
</svg>
