<svg width="18" height="18" viewBox="0 0 18 18" fill="none" xmlns="http://www.w3.org/2000/svg">
<path d="M17.4752 14.1684L16.1418 6.62084C15.8658 5.05867 14.5141 3.92484 12.9277 3.92484H11.0413C11.3266 3.51942 11.4947 3.026 11.4947 2.49374C11.4947 1.11871 10.376 0 9.00094 0C7.62591 0 6.50716 1.11871 6.50716 2.49377C6.50716 3.02604 6.67532 3.51946 6.96054 3.92488H5.07413C3.48781 3.92488 2.13608 5.0587 1.86007 6.62087L0.526667 14.1684C0.358374 15.1211 0.61846 16.0925 1.24016 16.8337C1.8619 17.5749 2.77329 18 3.74076 18H14.2612C15.2287 18 16.14 17.5749 16.7617 16.8337C17.3835 16.0925 17.6435 15.1211 17.4752 14.1684ZM9.00094 1.06267C9.79005 1.06267 10.432 1.70466 10.432 2.49377C10.432 3.28289 9.79002 3.92488 9.00094 3.92488C8.21186 3.92488 7.56983 3.28289 7.56983 2.49377C7.56983 1.70466 8.21182 1.06267 9.00094 1.06267ZM15.9476 16.1508C15.5283 16.6507 14.9136 16.9373 14.2612 16.9373H3.74076C3.08833 16.9373 2.47365 16.6507 2.05438 16.1508C1.63511 15.6509 1.45968 14.9957 1.5732 14.3532L2.9066 6.80576C3.09276 5.75223 4.00436 4.98751 5.07416 4.98751H12.9278C13.9977 4.98751 14.9093 5.75216 15.0954 6.80569L16.4288 14.3532C16.5423 14.9957 16.3668 15.6509 15.9476 16.1508Z" fill="#001E50"/>
<path d="M7.2496 10.9622L8.58107 9.58639C8.78515 9.37556 8.7796 9.03918 8.56873 8.8351C8.35783 8.63095 8.02145 8.63657 7.81737 8.84741L6.32833 10.3861V9.2169C6.32833 8.92345 6.09043 8.68555 5.79698 8.68555C5.50353 8.68555 5.26562 8.92345 5.26562 9.2169V12.7076C5.26562 13.001 5.50353 13.2389 5.79698 13.2389C6.09043 13.2389 6.32833 13.001 6.32833 12.7076V11.5384L7.81737 13.0771C7.92157 13.1848 8.06034 13.2389 8.19927 13.2389C8.3323 13.2389 8.46555 13.1893 8.56873 13.0894C8.7796 12.8853 8.78508 12.549 8.58107 12.3381L7.2496 10.9622Z" fill="#001E50"/>
<path d="M12.1991 10.581H11.4014C11.108 10.581 10.8701 10.8189 10.8701 11.1123C10.8701 11.4058 11.108 11.6437 11.4014 11.6437H11.6589C11.6083 11.9455 11.3452 12.1762 11.0292 12.1762C10.6772 12.1762 10.3908 11.8898 10.3908 11.5377V10.3867C10.3908 10.0346 10.6772 9.74818 11.0292 9.74818C11.2273 9.74818 11.4109 9.8379 11.5331 9.99441C11.7136 10.2257 12.0475 10.2669 12.2789 10.0863C12.5102 9.90571 12.5513 9.57184 12.3708 9.34054C12.0459 8.92429 11.5569 8.68555 11.0293 8.68555C10.0913 8.68555 9.32812 9.44868 9.32812 10.3867V11.5378C9.32812 12.4758 10.0913 13.2389 11.0293 13.2389C11.9673 13.2389 12.7304 12.4758 12.7304 11.5378V11.1124C12.7304 10.8189 12.4925 10.581 12.1991 10.581Z" fill="#001E50"/>
</svg>
