<svg version="1.1" id="Layer_1" xmlns="http://www.w3.org/2000/svg" xmlns:xlink="http://www.w3.org/1999/xlink" x="0px" y="0px"
	 viewBox="0 0 20 20" style="enable-background:new 0 0 20 20;" xml:space="preserve">
<style type="text/css">
	.st0{fill:#0064FF;}
</style>
<g>
	<path class="st0" d="M12,15.8c-0.2,0-0.4-0.1-0.5-0.2c-0.3-0.3-0.3-0.8,0-1.1L16,10l-4.5-4.5c-0.3-0.3-0.3-0.8,0-1.1s0.8-0.3,1.1,0
		l5.1,5.1c0.3,0.3,0.3,0.8,0,1.1l-5.1,5.1C12.4,15.7,12.2,15.8,12,15.8z"/>
</g>
<g>
	<path class="st0" d="M16.9,10.8h-14c-0.4,0-0.8-0.3-0.8-0.8s0.3-0.8,0.8-0.8h14c0.4,0,0.8,0.3,0.8,0.8S17.4,10.8,16.9,10.8z"/>
</g>
</svg>
