<svg width="19" height="17" viewBox="0 0 19 17" fill="none" xmlns="http://www.w3.org/2000/svg">
<path d="M0.0546875 14.791C0.0546875 13.9707 -0.121094 10.7334 2.43262 8.16504C4.15137 6.43652 6.72363 6.13672 9.7998 6V1.69308C9.7998 1.04233 10.5718 0.70036 11.0537 1.13761L18.1938 7.61526C18.5196 7.91085 18.5222 8.42209 18.1995 8.721L11.0594 15.3335C10.5793 15.7781 9.7998 15.4376 9.7998 14.7832V10.5C7.84668 10.5537 6.45543 10.6779 5.19141 11.0801C2.74831 11.8573 1.2986 15.1902 0.907661 16.2054C0.840242 16.3804 0.673264 16.5 0.485659 16.5C0.244944 16.5 0.0498791 16.3049 0.0506344 16.0642C0.0520287 15.6211 0.0546875 15.1117 0.0546875 14.791Z" fill="white"/>
</svg>
