<svg width="8" height="12" viewBox="0 0 8 12" fill="none" xmlns="http://www.w3.org/2000/svg">
<path d="M0.445302 6.96096C0.577571 6.8287 0.796943 6.8287 0.929212 6.96096L3.65846 9.69022L3.65846 1.4831C3.65846 1.38632 3.69718 1.30244 3.75847 1.24115C3.81977 1.17985 3.90365 1.14114 4.00043 1.14114C4.18754 1.14114 4.34239 1.29599 4.34239 1.4831L4.34239 9.69022L7.07164 6.96096C7.20391 6.8287 7.42328 6.8287 7.55555 6.96096C7.68782 7.09323 7.68782 7.31261 7.55555 7.44487L4.24238 10.758C4.21012 10.7903 4.17463 10.8129 4.12947 10.8322C4.04882 10.8677 3.95204 10.8677 3.87138 10.8322C3.82622 10.8129 3.79073 10.7903 3.75847 10.758L0.445302 7.44487C0.313033 7.31261 0.313033 7.09323 0.445302 6.96096Z" fill="#F3543F" stroke="#F3543F" stroke-width="0.5"/>
</svg>
