<svg width="12" height="12" viewBox="0 0 12 12" fill="none" xmlns="http://www.w3.org/2000/svg">
<path d="M4.44001 2.30035C4.04001 0.570352 1.43501 0.565352 1.03501 2.30035C0.800012 3.31535 1.44501 4.17535 2.00501 4.71035C2.41501 5.09535 3.06001 5.09535 3.47001 4.71035C4.03001 4.17535 4.67001 3.31535 4.44001 2.30035ZM2.75501 3.10035C2.48001 3.10035 2.25501 2.87535 2.25501 2.60035C2.25501 2.32535 2.47501 2.10035 2.75001 2.10035H2.75501C3.03501 2.10035 3.25501 2.32535 3.25501 2.60035C3.25501 2.87535 3.03501 3.10035 2.75501 3.10035Z" fill="#474F5A"/>
<path d="M10.955 8.30035C10.555 6.57035 7.94 6.56535 7.535 8.30035C7.3 9.31535 7.945 10.1754 8.51 10.7104C8.92 11.0954 9.57 11.0954 9.98 10.7104C10.545 10.1754 11.19 9.31535 10.955 8.30035ZM9.265 9.10035C8.99 9.10035 8.765 8.87535 8.765 8.60035C8.765 8.32535 8.985 8.10035 9.26 8.10035H9.265C9.54 8.10035 9.765 8.32535 9.765 8.60035C9.765 8.87535 9.54 9.10035 9.265 9.10035Z" fill="#474F5A"/>
<path d="M5.99997 9.875H4.65997C4.07997 9.875 3.57497 9.525 3.37497 8.985C3.16997 8.445 3.31997 7.85 3.75497 7.465L7.74997 3.97C7.98997 3.76 7.99497 3.475 7.92497 3.28C7.84997 3.085 7.65997 2.875 7.33997 2.875H5.99997C5.79497 2.875 5.62497 2.705 5.62497 2.5C5.62497 2.295 5.79497 2.125 5.99997 2.125H7.33997C7.91997 2.125 8.42497 2.475 8.62497 3.015C8.82997 3.555 8.67997 4.15 8.24497 4.535L4.24997 8.03C4.00997 8.24 4.00497 8.525 4.07497 8.72C4.14997 8.915 4.33997 9.125 4.65997 9.125H5.99997C6.20497 9.125 6.37497 9.295 6.37497 9.5C6.37497 9.705 6.20497 9.875 5.99997 9.875Z" fill="#474F5A"/>
</svg>
