<svg version="1.1" id="Layer_1" xmlns="http://www.w3.org/2000/svg" xmlns:xlink="http://www.w3.org/1999/xlink" x="0px" y="0px"
	 viewBox="0 0 20 20" style="enable-background:new 0 0 20 20;" xml:space="preserve">
<style type="text/css">
	.st0{fill:#FFFFFF;}
</style>
<g>
	<path class="st0" d="M10.8,19.1H9.2c-2.8,0-4.5-0.6-4.8-3.5c-0.1-0.4-0.1-0.8-0.1-1.5V5.8c0-0.6,0-1.1,0.1-1.5
		c0.3-2.9,2-3.4,4.8-3.4h1.7c2.8,0,4.5,0.6,4.8,3.5c0.1,0.4,0.1,0.8,0.1,1.5v8.3c0,0.6,0,1.1-0.1,1.5C15.4,18.5,13.7,19.1,10.8,19.1
		z M9.2,2.4C6.5,2.4,6,2.9,5.8,4.5c0,0.4-0.1,0.7-0.1,1.3v8.3c0,0.6,0,1,0.1,1.3c0.2,1.6,0.7,2.1,3.3,2.1h1.7c2.7,0,3.2-0.5,3.3-2.1
		c0-0.4,0.1-0.7,0.1-1.3V5.8c0-0.6,0-1-0.1-1.3c-0.2-1.6-0.7-2.1-3.3-2.1H9.2z"/>
</g>
<g>
	<path class="st0" d="M4.7,16.3H4.4c-2.6,0-3.5-0.9-3.5-3.5V7.2c0-2.6,0.9-3.5,3.5-3.5h0.3c0.1,0,0.3,0,0.4,0c0.2,0,0.4,0.1,0.5,0.3
		c0.1,0.2,0.2,0.4,0.2,0.6c0,0.3-0.1,0.7-0.1,1.3v8.3c0,0.6,0,1,0.1,1.3c0,0.2,0,0.4-0.2,0.6c-0.1,0.2-0.3,0.3-0.5,0.3
		C5,16.3,4.9,16.3,4.7,16.3z M4.3,5.2c-1.6,0-1.8,0.3-1.8,2v5.6c0,1.7,0.2,2,1.8,2c0-0.2,0-0.4,0-0.6V5.8C4.2,5.6,4.3,5.4,4.3,5.2z"
		/>
</g>
<g>
	<path class="st0" d="M15.6,16.3h-0.3c-0.1,0-0.3,0-0.4,0c-0.2,0-0.4-0.1-0.5-0.3s-0.2-0.4-0.2-0.6c0-0.3,0.1-0.7,0.1-1.3V5.8
		c0-0.6,0-1-0.1-1.3c0-0.2,0-0.4,0.2-0.6s0.3-0.3,0.5-0.3c0.1,0,0.3,0,0.4,0h0.3c2.6,0,3.5,0.9,3.5,3.5v5.6
		C19.1,15.4,18.2,16.3,15.6,16.3z M15.7,5.2c0,0.2,0,0.4,0,0.6v8.3c0,0.2,0,0.4,0,0.6c1.6,0,1.8-0.3,1.8-2V7.2
		C17.6,5.5,17.4,5.2,15.7,5.2z"/>
</g>
</svg>
